<svg xmlns="http://www.w3.org/2000/svg" xmlns:xlink="http://www.w3.org/1999/xlink" contentStyleType="text/css" data-diagram-type="CLASS" height="912px" preserveAspectRatio="none" style="width:1725px;height:912px;background:#FFFFFF;" version="1.1" viewBox="0 0 1725 912" width="1725px" zoomAndPan="magnify"><title>goflowmeter - class diagram</title><defs/><g><g class="title" data-source-line="2"><text fill="#000000" font-family="Verdana" font-size="22" font-weight="bold" lengthAdjust="spacing" textLength="353.7725" x="681.4058" y="35.4209">goflowmeter - class diagram</text></g><!--class Direction--><g class="entity" data-entity="Direction" data-source-line="4" data-uid="ent0002" id="entity_Direction"><rect fill="#FFFFFF" height="76.5938" rx="2.5" ry="2.5" style="stroke:#000000;stroke-width:1;" width="91.5537" x="1176" y="553.1094"/><ellipse cx="1189" cy="567.1094" fill="#FFFFFF" rx="9" ry="9" style="stroke:#000000;stroke-width:1;"/><path d="M1193.1094,573.1094 L1185.3906,573.1094 L1185.3906,560.7188 L1193.1094,560.7188 L1193.1094,562.875 L1187.8438,562.875 L1187.8438,565.5469 L1192.6094,565.5469 L1192.6094,567.7031 L1187.8438,567.7031 L1187.8438,570.9531 L1193.1094,570.9531 L1193.1094,573.1094 Z " fill="#000000"/><text fill="#000000" font-family="Verdana" font-size="14" lengthAdjust="spacing" textLength="63.5537" x="1201" y="571.9561">Direction</text><line style="stroke:#000000;stroke-width:1;" x1="1177" x2="1266.5537" y1="581.1094" y2="581.1094"/><text fill="#000000" font-family="Verdana" font-size="14" lengthAdjust="spacing" textLength="57.0459" x="1182" y="598.1045">Forward</text><text fill="#000000" font-family="Verdana" font-size="14" lengthAdjust="spacing" textLength="68.6602" x="1182" y="614.4014">Backward</text><line style="stroke:#000000;stroke-width:1;" x1="1177" x2="1266.5537" y1="621.7031" y2="621.7031"/></g><!--class FlowKey--><g class="entity" data-entity="FlowKey" data-source-line="9" data-uid="ent0003" id="entity_FlowKey"><rect fill="#FFFFFF" height="125.4844" rx="2.5" ry="2.5" style="stroke:#000000;stroke-width:1;" width="122.373" x="1019" y="529.1094"/><ellipse cx="1048.3512" cy="543.1094" fill="#FFFFFF" rx="9" ry="9" style="stroke:#000000;stroke-width:1;"/><path d="M1051.3199,548.75 Q1050.7418,549.0469 1050.1012,549.1875 Q1049.4605,549.3438 1048.7574,549.3438 Q1046.2574,549.3438 1044.9293,547.7031 Q1043.6168,546.0469 1043.6168,542.9219 Q1043.6168,539.7969 1044.9293,538.1406 Q1046.2574,536.4844 1048.7574,536.4844 Q1049.4605,536.4844 1050.1012,536.6406 Q1050.7574,536.7969 1051.3199,537.0938 L1051.3199,539.8125 Q1050.6949,539.2344 1050.1012,538.9688 Q1049.5074,538.6875 1048.8824,538.6875 Q1047.5387,538.6875 1046.8512,539.7656 Q1046.1637,540.8281 1046.1637,542.9219 Q1046.1637,545.0156 1046.8512,546.0938 Q1047.5387,547.1563 1048.8824,547.1563 Q1049.5074,547.1563 1050.1012,546.8906 Q1050.6949,546.6094 1051.3199,546.0313 L1051.3199,548.75 Z " fill="#000000"/><text fill="#000000" font-family="Verdana" font-size="14" lengthAdjust="spacing" textLength="58.0371" x="1063.9848" y="547.9561">FlowKey</text><line style="stroke:#000000;stroke-width:1;" x1="1020" x2="1140.373" y1="557.1094" y2="557.1094"/><text fill="#000000" font-family="Verdana" font-size="14" lengthAdjust="spacing" textLength="88.7168" x="1025" y="574.1045">SrcIP : string</text><text fill="#000000" font-family="Verdana" font-size="14" lengthAdjust="spacing" textLength="89.9404" x="1025" y="590.4014">DstIP : string</text><text fill="#000000" font-family="Verdana" font-size="14" lengthAdjust="spacing" textLength="109.1494" x="1025" y="606.6982">SrcPort : uint16</text><text fill="#000000" font-family="Verdana" font-size="14" lengthAdjust="spacing" textLength="110.373" x="1025" y="622.9951">DstPort : uint16</text><text fill="#000000" font-family="Verdana" font-size="14" lengthAdjust="spacing" textLength="106.6201" x="1025" y="639.292">Protocol : uint8</text><line style="stroke:#000000;stroke-width:1;" x1="1020" x2="1140.373" y1="646.5938" y2="646.5938"/></g><!--class RawPacket--><g class="entity" data-entity="RawPacket" data-source-line="17" data-uid="ent0004" id="entity_RawPacket"><rect fill="#FFFFFF" height="174.375" rx="2.5" ry="2.5" style="stroke:#000000;stroke-width:1;" width="343.584" x="1375" y="196.1094"/><ellipse cx="1504.6992" cy="210.1094" fill="#FFFFFF" rx="9" ry="9" style="stroke:#000000;stroke-width:1;"/><path d="M1507.668,215.75 Q1507.0898,216.0469 1506.4492,216.1875 Q1505.8086,216.3438 1505.1055,216.3438 Q1502.6055,216.3438 1501.2773,214.7031 Q1499.9648,213.0469 1499.9648,209.9219 Q1499.9648,206.7969 1501.2773,205.1406 Q1502.6055,203.4844 1505.1055,203.4844 Q1505.8086,203.4844 1506.4492,203.6406 Q1507.1055,203.7969 1507.668,204.0938 L1507.668,206.8125 Q1507.043,206.2344 1506.4492,205.9688 Q1505.8555,205.6875 1505.2305,205.6875 Q1503.8867,205.6875 1503.1992,206.7656 Q1502.5117,207.8281 1502.5117,209.9219 Q1502.5117,212.0156 1503.1992,213.0938 Q1503.8867,214.1563 1505.2305,214.1563 Q1505.8555,214.1563 1506.4492,213.8906 Q1507.043,213.6094 1507.668,213.0313 L1507.668,215.75 Z " fill="#000000"/><text fill="#000000" font-family="Verdana" font-size="14" lengthAdjust="spacing" textLength="76.6855" x="1522.1992" y="214.9561">RawPacket</text><line style="stroke:#000000;stroke-width:1;" x1="1376" x2="1717.584" y1="224.1094" y2="224.1094"/><text fill="#000000" font-family="Verdana" font-size="14" lengthAdjust="spacing" textLength="162.9688" x="1381" y="241.1045">Timestamp : time.Time</text><text fill="#000000" font-family="Verdana" font-size="14" lengthAdjust="spacing" textLength="108.1309" x="1381" y="257.4014">HeaderLen : int</text><text fill="#000000" font-family="Verdana" font-size="14" lengthAdjust="spacing" textLength="115.835" x="1381" y="273.6982">PayloadSize : int</text><text fill="#000000" font-family="Verdana" font-size="14" lengthAdjust="spacing" textLength="140.834" x="1381" y="289.9951">TCPWindow : uint16</text><text fill="#000000" font-family="Verdana" font-size="14" lengthAdjust="spacing" textLength="133.752" x="1381" y="306.292">SrcIP, DstIP : string</text><text fill="#000000" font-family="Verdana" font-size="14" lengthAdjust="spacing" textLength="169.8662" x="1381" y="322.5889">SrcPort, DstPort : uint16</text><text fill="#000000" font-family="Verdana" font-size="14" lengthAdjust="spacing" textLength="106.6201" x="1381" y="338.8857">Protocol : uint8</text><text fill="#000000" font-family="Verdana" font-size="14" lengthAdjust="spacing" textLength="331.584" x="1381" y="355.1826">FIN, SYN, RST, PSH, ACK, URG, CWR, ECE : bool</text><line style="stroke:#000000;stroke-width:1;" x1="1376" x2="1717.584" y1="362.4844" y2="362.4844"/></g><!--class PacketInfo--><g class="entity" data-entity="PacketInfo" data-source-line="28" data-uid="ent0005" id="entity_PacketInfo"><rect fill="#FFFFFF" height="206.9688" rx="2.5" ry="2.5" style="stroke:#000000;stroke-width:1;" width="343.584" x="996" y="179.6094"/><ellipse cx="1127.3296" cy="193.6094" fill="#FFFFFF" rx="9" ry="9" style="stroke:#000000;stroke-width:1;"/><path d="M1130.2983,199.25 Q1129.7202,199.5469 1129.0796,199.6875 Q1128.439,199.8438 1127.7358,199.8438 Q1125.2358,199.8438 1123.9077,198.2031 Q1122.5952,196.5469 1122.5952,193.4219 Q1122.5952,190.2969 1123.9077,188.6406 Q1125.2358,186.9844 1127.7358,186.9844 Q1128.439,186.9844 1129.0796,187.1406 Q1129.7358,187.2969 1130.2983,187.5938 L1130.2983,190.3125 Q1129.6733,189.7344 1129.0796,189.4688 Q1128.4858,189.1875 1127.8608,189.1875 Q1126.5171,189.1875 1125.8296,190.2656 Q1125.1421,191.3281 1125.1421,193.4219 Q1125.1421,195.5156 1125.8296,196.5938 Q1126.5171,197.6563 1127.8608,197.6563 Q1128.4858,197.6563 1129.0796,197.3906 Q1129.6733,197.1094 1130.2983,196.5313 L1130.2983,199.25 Z " fill="#000000"/><text fill="#000000" font-family="Verdana" font-size="14" lengthAdjust="spacing" textLength="73.4248" x="1144.8296" y="198.4561">PacketInfo</text><line style="stroke:#000000;stroke-width:1;" x1="997" x2="1338.584" y1="207.6094" y2="207.6094"/><text fill="#000000" font-family="Verdana" font-size="14" lengthAdjust="spacing" textLength="162.9688" x="1002" y="224.6045">Timestamp : time.Time</text><text fill="#000000" font-family="Verdana" font-size="14" lengthAdjust="spacing" textLength="140.7246" x="1002" y="240.9014">Direction : Direction</text><text fill="#000000" font-family="Verdana" font-size="14" lengthAdjust="spacing" textLength="108.1309" x="1002" y="257.1982">HeaderLen : int</text><text fill="#000000" font-family="Verdana" font-size="14" lengthAdjust="spacing" textLength="115.835" x="1002" y="273.4951">PayloadSize : int</text><text fill="#000000" font-family="Verdana" font-size="14" lengthAdjust="spacing" textLength="140.834" x="1002" y="289.792">TCPWindow : uint16</text><text fill="#000000" font-family="Verdana" font-size="14" lengthAdjust="spacing" textLength="133.752" x="1002" y="306.0889">SrcIP, DstIP : string</text><text fill="#000000" font-family="Verdana" font-size="14" lengthAdjust="spacing" textLength="169.8662" x="1002" y="322.3857">SrcPort, DstPort : uint16</text><text fill="#000000" font-family="Verdana" font-size="14" lengthAdjust="spacing" textLength="106.6201" x="1002" y="338.6826">Protocol : uint8</text><text fill="#000000" font-family="Verdana" font-size="14" lengthAdjust="spacing" textLength="331.584" x="1002" y="354.9795">FIN, SYN, RST, PSH, ACK, URG, CWR, ECE : bool</text><line style="stroke:#000000;stroke-width:1;stroke-dasharray:1,2;" x1="997" x2="1338.584" y1="362.2813" y2="362.2813"/><text fill="#000000" font-family="Verdana" font-size="14" lengthAdjust="spacing" textLength="108.6572" x="1002" y="379.2764">Key() : FlowKey</text></g><!--class FlowFeatures--><g class="entity" data-entity="FlowFeatures" data-source-line="42" data-uid="ent0006" id="entity_FlowFeatures"><rect fill="#FFFFFF" height="255.8594" rx="2.5" ry="2.5" style="stroke:#000000;stroke-width:1;" width="972.2031" x="12" y="463.6094"/><ellipse cx="447.7373" cy="477.6094" fill="#FFFFFF" rx="9" ry="9" style="stroke:#000000;stroke-width:1;"/><path d="M450.7061,483.25 Q450.1279,483.5469 449.4873,483.6875 Q448.8467,483.8438 448.1436,483.8438 Q445.6436,483.8438 444.3154,482.2031 Q443.0029,480.5469 443.0029,477.4219 Q443.0029,474.2969 444.3154,472.6406 Q445.6436,470.9844 448.1436,470.9844 Q448.8467,470.9844 449.4873,471.1406 Q450.1436,471.2969 450.7061,471.5938 L450.7061,474.3125 Q450.0811,473.7344 449.4873,473.4688 Q448.8936,473.1875 448.2686,473.1875 Q446.9248,473.1875 446.2373,474.2656 Q445.5498,475.3281 445.5498,477.4219 Q445.5498,479.5156 446.2373,480.5938 Q446.9248,481.6563 448.2686,481.6563 Q448.8936,481.6563 449.4873,481.3906 Q450.0811,481.1094 450.7061,480.5313 L450.7061,483.25 Z " fill="#000000"/><text fill="#000000" font-family="Verdana" font-size="14" lengthAdjust="spacing" textLength="93.2285" x="465.2373" y="482.4561">FlowFeatures</text><line style="stroke:#000000;stroke-width:1;" x1="13" x2="983.2031" y1="491.6094" y2="491.6094"/><text fill="#000000" font-family="Verdana" font-size="14" lengthAdjust="spacing" textLength="381.5479" x="18" y="508.6045">FlowDurationUs, FlowBytesPerSec, FlowPacketsPerSec</text><text fill="#000000" font-family="Verdana" font-size="14" lengthAdjust="spacing" textLength="470.6816" x="18" y="524.9014">TotalFwdPackets, TotalBwdPackets, TotalFwdBytes, TotalBwdBytes</text><text fill="#000000" font-family="Verdana" font-size="14" lengthAdjust="spacing" textLength="342.1318" x="18" y="541.1982">FwdPacketLen, BwdPacketLen, PacketLen : Stats</text><text fill="#000000" font-family="Verdana" font-size="14" lengthAdjust="spacing" textLength="960.2031" x="18" y="557.4951">MinPacketLen, MaxPacketLen, PacketLenMean, PacketLenStd, PacketLenVar, AvgPacketSize, AvgFwdSegmentSize, AvgBwdSegmentSize</text><text fill="#000000" font-family="Verdana" font-size="14" lengthAdjust="spacing" textLength="365.6611" x="18" y="573.792">FlowIAT, FwdIAT, BwdIAT, FwdIATTotal, BwdIATTotal</text><text fill="#000000" font-family="Verdana" font-size="14" lengthAdjust="spacing" textLength="607.0107" x="18" y="590.0889">FwdPSHFlag, BwdPSHFlag, FwdURGFlag, BwdURGFlag, FwdHeaderLen, BwdHeaderLen</text><text fill="#000000" font-family="Verdana" font-size="14" lengthAdjust="spacing" textLength="319.9287" x="18" y="606.3857">FIN, SYN, RST, PSH, ACK, URG, CWR, ECE : int</text><text fill="#000000" font-family="Verdana" font-size="14" lengthAdjust="spacing" textLength="375.6484" x="18" y="622.6826">FwdPacketsPerSec, BwdPacketsPerSec, DownUpRatio</text><text fill="#000000" font-family="Verdana" font-size="14" lengthAdjust="spacing" textLength="446.1816" x="18" y="638.9795">FwdAvgBytesPerBulk, FwdAvgPacketsPerBulk, FwdAvgBulkRate</text><text fill="#000000" font-family="Verdana" font-size="14" lengthAdjust="spacing" textLength="450.8369" x="18" y="655.2764">BwdAvgBytesPerBulk, BwdAvgPacketsPerBulk, BwdAvgBulkRate</text><text fill="#000000" font-family="Verdana" font-size="14" lengthAdjust="spacing" textLength="552.3027" x="18" y="671.5732">SubflowFwdPackets, SubflowFwdBytes, SubflowBwdPackets, SubflowBwdBytes</text><text fill="#000000" font-family="Verdana" font-size="14" lengthAdjust="spacing" textLength="476.5537" x="18" y="687.8701">InitWinBytesFwd, InitWinBytesBwd, ActDataPktFwd, MinSegSizeFwd</text><text fill="#000000" font-family="Verdana" font-size="14" lengthAdjust="spacing" textLength="196.7109" x="18" y="704.167">ActiveTime, IdleTime : Stats</text><line style="stroke:#000000;stroke-width:1;" x1="13" x2="983.2031" y1="711.4688" y2="711.4688"/></g><!--class FlowWithKey--><g class="entity" data-entity="FlowWithKey" data-source-line="58" data-uid="ent0007" id="entity_FlowWithKey"><rect fill="#FFFFFF" height="76.5938" rx="2.5" ry="2.5" style="stroke:#000000;stroke-width:1;" width="180.1162" x="680" y="244.6094"/><ellipse cx="721.2422" cy="258.6094" fill="#FFFFFF" rx="9" ry="9" style="stroke:#000000;stroke-width:1;"/><path d="M724.2109,264.25 Q723.6328,264.5469 722.9922,264.6875 Q722.3516,264.8438 721.6484,264.8438 Q719.1484,264.8438 717.8203,263.2031 Q716.5078,261.5469 716.5078,258.4219 Q716.5078,255.2969 717.8203,253.6406 Q719.1484,251.9844 721.6484,251.9844 Q722.3516,251.9844 722.9922,252.1406 Q723.6484,252.2969 724.2109,252.5938 L724.2109,255.3125 Q723.5859,254.7344 722.9922,254.4688 Q722.3984,254.1875 721.7734,254.1875 Q720.4297,254.1875 719.7422,255.2656 Q719.0547,256.3281 719.0547,258.4219 Q719.0547,260.5156 719.7422,261.5938 Q720.4297,262.6563 721.7734,262.6563 Q722.3984,262.6563 722.9922,262.3906 Q723.5859,262.1094 724.2109,261.5313 L724.2109,264.25 Z " fill="#000000"/><text fill="#000000" font-family="Verdana" font-size="14" lengthAdjust="spacing" textLength="90.1318" x="738.7422" y="263.4561">FlowWithKey</text><line style="stroke:#000000;stroke-width:1;" x1="681" x2="859.1162" y1="272.6094" y2="272.6094"/><text fill="#000000" font-family="Verdana" font-size="14" lengthAdjust="spacing" textLength="97.7334" x="686" y="289.6045">Key : FlowKey</text><text fill="#000000" font-family="Verdana" font-size="14" lengthAdjust="spacing" textLength="168.1162" x="686" y="305.9014">Features : FlowFeatures</text><line style="stroke:#000000;stroke-width:1;" x1="681" x2="859.1162" y1="313.2031" y2="313.2031"/></g><!--class Stats--><g class="entity" data-entity="Stats" data-source-line="63" data-uid="ent0008" id="entity_Stats"><rect fill="#FFFFFF" height="109.1875" rx="2.5" ry="2.5" style="stroke:#000000;stroke-width:1;" width="113.0283" x="441.5" y="796.6094"/><ellipse cx="476.6805" cy="810.6094" fill="#FFFFFF" rx="9" ry="9" style="stroke:#000000;stroke-width:1;"/><path d="M479.6493,816.25 Q479.0711,816.5469 478.4305,816.6875 Q477.7899,816.8438 477.0868,816.8438 Q474.5868,816.8438 473.2586,815.2031 Q471.9461,813.5469 471.9461,810.4219 Q471.9461,807.2969 473.2586,805.6406 Q474.5868,803.9844 477.0868,803.9844 Q477.7899,803.9844 478.4305,804.1406 Q479.0868,804.2969 479.6493,804.5938 L479.6493,807.3125 Q479.0243,806.7344 478.4305,806.4688 Q477.8368,806.1875 477.2118,806.1875 Q475.868,806.1875 475.1805,807.2656 Q474.493,808.3281 474.493,810.4219 Q474.493,812.5156 475.1805,813.5938 Q475.868,814.6563 477.2118,814.6563 Q477.8368,814.6563 478.4305,814.3906 Q479.0243,814.1094 479.6493,813.5313 L479.6493,816.25 Z " fill="#000000"/><text fill="#000000" font-family="Verdana" font-size="14" lengthAdjust="spacing" textLength="35.7383" x="493.6095" y="815.4561">Stats</text><line style="stroke:#000000;stroke-width:1;" x1="442.5" x2="553.5283" y1="824.6094" y2="824.6094"/><text fill="#000000" font-family="Verdana" font-size="14" lengthAdjust="spacing" textLength="87.7256" x="447.5" y="841.6045">Min : float64</text><text fill="#000000" font-family="Verdana" font-size="14" lengthAdjust="spacing" textLength="91.8271" x="447.5" y="857.9014">Max : float64</text><text fill="#000000" font-family="Verdana" font-size="14" lengthAdjust="spacing" textLength="101.0283" x="447.5" y="874.1982">Mean : float64</text><text fill="#000000" font-family="Verdana" font-size="14" lengthAdjust="spacing" textLength="86.1465" x="447.5" y="890.4951">Std : float64</text><line style="stroke:#000000;stroke-width:1;" x1="442.5" x2="553.5283" y1="897.7969" y2="897.7969"/></g><!--class Convert--><g class="entity" data-entity="Convert" data-source-line="70" data-uid="ent0009" id="entity_Convert"><rect fill="#FFFFFF" height="44" rx="2.5" ry="2.5" style="stroke:#000000;stroke-width:1;" width="83.3574" x="1410.5" y="58.6094"/><ellipse cx="1423.5" cy="72.6094" fill="#FFFFFF" rx="9" ry="9" style="stroke:#000000;stroke-width:1;"/><path d="M1426.4688,78.25 Q1425.8906,78.5469 1425.25,78.6875 Q1424.6094,78.8438 1423.9063,78.8438 Q1421.4063,78.8438 1420.0781,77.2031 Q1418.7656,75.5469 1418.7656,72.4219 Q1418.7656,69.2969 1420.0781,67.6406 Q1421.4063,65.9844 1423.9063,65.9844 Q1424.6094,65.9844 1425.25,66.1406 Q1425.9063,66.2969 1426.4688,66.5938 L1426.4688,69.3125 Q1425.8438,68.7344 1425.25,68.4688 Q1424.6563,68.1875 1424.0313,68.1875 Q1422.6875,68.1875 1422,69.2656 Q1421.3125,70.3281 1421.3125,72.4219 Q1421.3125,74.5156 1422,75.5938 Q1422.6875,76.6563 1424.0313,76.6563 Q1424.6563,76.6563 1425.25,76.3906 Q1425.8438,76.1094 1426.4688,75.5313 L1426.4688,78.25 Z " fill="#000000"/><text fill="#000000" font-family="Verdana" font-size="14" lengthAdjust="spacing" textLength="55.3574" x="1435.5" y="77.4561">Convert</text><line style="stroke:#000000;stroke-width:1;" x1="1411.5" x2="1492.8574" y1="86.6094" y2="86.6094"/><line style="stroke:#000000;stroke-width:1;" x1="1411.5" x2="1492.8574" y1="94.6094" y2="94.6094"/></g><!--class ProcessPacketsWithKeys--><g class="entity" data-entity="ProcessPacketsWithKeys" data-source-line="72" data-uid="ent0012" id="entity_ProcessPacketsWithKeys"><rect fill="#FFFFFF" height="44" rx="2.5" ry="2.5" style="stroke:#000000;stroke-width:1;" width="201.3525" x="749.5" y="58.6094"/><ellipse cx="762.5" cy="72.6094" fill="#FFFFFF" rx="9" ry="9" style="stroke:#000000;stroke-width:1;"/><path d="M765.4688,78.25 Q764.8906,78.5469 764.25,78.6875 Q763.6094,78.8438 762.9063,78.8438 Q760.4063,78.8438 759.0781,77.2031 Q757.7656,75.5469 757.7656,72.4219 Q757.7656,69.2969 759.0781,67.6406 Q760.4063,65.9844 762.9063,65.9844 Q763.6094,65.9844 764.25,66.1406 Q764.9063,66.2969 765.4688,66.5938 L765.4688,69.3125 Q764.8438,68.7344 764.25,68.4688 Q763.6563,68.1875 763.0313,68.1875 Q761.6875,68.1875 761,69.2656 Q760.3125,70.3281 760.3125,72.4219 Q760.3125,74.5156 761,75.5938 Q761.6875,76.6563 763.0313,76.6563 Q763.6563,76.6563 764.25,76.3906 Q764.8438,76.1094 765.4688,75.5313 L765.4688,78.25 Z " fill="#000000"/><text fill="#000000" font-family="Verdana" font-size="14" lengthAdjust="spacing" textLength="173.3525" x="774.5" y="77.4561">ProcessPacketsWithKeys</text><line style="stroke:#000000;stroke-width:1;" x1="750.5" x2="949.8525" y1="86.6094" y2="86.6094"/><line style="stroke:#000000;stroke-width:1;" x1="750.5" x2="949.8525" y1="94.6094" y2="94.6094"/></g><!--link Convert to RawPacket--><g class="link" data-entity-1="Convert" data-entity-2="RawPacket" data-source-line="70" data-uid="lnk10" id="link_Convert_RawPacket"><path codeLine="70" d="M1461.99,102.6894 C1472.52,124.9094 1487.2212,155.9471 1503.4612,190.2271" fill="none" id="Convert-to-RawPacket" style="stroke:#000000;stroke-width:1;stroke-dasharray:7,7;"/><polygon fill="#000000" points="1506.03,195.6494,1505.7917,185.8034,1503.8893,191.1308,1498.5619,189.2285,1506.03,195.6494" style="stroke:#000000;stroke-width:1;"/><text fill="#000000" font-family="Verdana" font-size="13" lengthAdjust="spacing" textLength="36.334" x="1483" y="145.6763">reads</text></g><!--link Convert to PacketInfo--><g class="link" data-entity-1="Convert" data-entity-2="PacketInfo" data-source-line="71" data-uid="lnk11" id="link_Convert_PacketInfo"><path codeLine="71" d="M1422.14,102.6894 C1395.58,121.4394 1359.5518,146.8793 1318.2418,176.0393" fill="none" id="Convert-to-PacketInfo" style="stroke:#000000;stroke-width:1;stroke-dasharray:7,7;"/><polygon fill="#000000" points="1313.34,179.4994,1322.9994,177.5771,1317.4248,176.616,1318.386,171.0414,1313.34,179.4994" style="stroke:#000000;stroke-width:1;"/><text fill="#000000" font-family="Verdana" font-size="13" lengthAdjust="spacing" textLength="39.457" x="1376" y="145.6763">writes</text></g><!--link ProcessPacketsWithKeys to PacketInfo--><g class="link" data-entity-1="ProcessPacketsWithKeys" data-entity-2="PacketInfo" data-source-line="72" data-uid="lnk13" id="link_ProcessPacketsWithKeys_PacketInfo"><path codeLine="72" d="M898.1,102.6894 C916.56,111.3094 937.6,121.7994 956,132.6094 C980.27,146.8694 1000.3616,159.7008 1024.3716,176.0608" fill="none" id="ProcessPacketsWithKeys-to-PacketInfo" style="stroke:#000000;stroke-width:1;stroke-dasharray:7,7;"/><polygon fill="#000000" points="1029.33,179.4394,1024.1448,171.066,1025.198,176.6239,1019.6401,177.6771,1029.33,179.4394" style="stroke:#000000;stroke-width:1;"/><text fill="#000000" font-family="Verdana" font-size="13" lengthAdjust="spacing" textLength="36.334" x="982" y="145.6763">reads</text></g><!--link ProcessPacketsWithKeys to FlowKey--><g class="link" data-entity-1="ProcessPacketsWithKeys" data-entity-2="FlowKey" data-source-line="73" data-uid="lnk14" id="link_ProcessPacketsWithKeys_FlowKey"><path codeLine="73" d="M867.71,102.8394 C874.27,111.5994 881.26,122.1394 886,132.6094 C933.89,238.3694 899.27,280.7694 947,386.6094 C964.18,424.7094 977.95,428.7394 1001,463.6094 C1014.89,484.6194 1026.4336,502.8367 1039.3436,523.7067" fill="none" id="ProcessPacketsWithKeys-to-FlowKey" style="stroke:#000000;stroke-width:1;stroke-dasharray:7,7;"/><polygon fill="#000000" points="1042.5,528.8094,1041.1671,519.0511,1039.8696,524.5572,1034.3636,523.2597,1042.5,528.8094" style="stroke:#000000;stroke-width:1;"/><text fill="#000000" font-family="Verdana" font-size="13" lengthAdjust="spacing" textLength="29.7832" x="948" y="287.6763">uses</text></g><!--link ProcessPacketsWithKeys to FlowWithKey--><g class="link" data-entity-1="ProcessPacketsWithKeys" data-entity-2="FlowWithKey" data-source-line="74" data-uid="lnk15" id="link_ProcessPacketsWithKeys_FlowWithKey"><path codeLine="74" d="M841.59,102.6894 C828.19,136.2694 804.034,196.8168 787.304,238.7368" fill="none" id="ProcessPacketsWithKeys-to-FlowWithKey" style="stroke:#000000;stroke-width:1;stroke-dasharray:7,7;"/><polygon fill="#000000" points="785.08,244.3094,792.131,237.4331,786.9333,239.6655,784.7009,234.4678,785.08,244.3094" style="stroke:#000000;stroke-width:1;"/><text fill="#000000" font-family="Verdana" font-size="13" lengthAdjust="spacing" textLength="47.0361" x="830" y="145.6763">returns</text></g><!--link ProcessPacketsWithKeys to FlowFeatures--><g class="link" data-entity-1="ProcessPacketsWithKeys" data-entity-2="FlowFeatures" data-source-line="75" data-uid="lnk16" id="link_ProcessPacketsWithKeys_FlowFeatures"><path codeLine="75" d="M767.18,102.6494 C723.46,117.5994 671.98,141.8694 638,179.6094 C567.13,258.3194 533.0331,368.5412 515.6531,457.2912" fill="none" id="ProcessPacketsWithKeys-to-FlowFeatures" style="stroke:#000000;stroke-width:1;stroke-dasharray:7,7;"/><polygon fill="#000000" points="514.5,463.1794,520.1551,455.1159,515.4609,458.2726,512.3042,453.5784,514.5,463.1794" style="stroke:#000000;stroke-width:1;"/><text fill="#000000" font-family="Verdana" font-size="13" lengthAdjust="spacing" textLength="22.1851" x="639" y="287.6763">fills</text></g><!--link PacketInfo to FlowKey--><g class="link" data-entity-1="PacketInfo" data-entity-2="FlowKey" data-source-line="76" data-uid="lnk17" id="link_PacketInfo_FlowKey"><path codeLine="76" d="M1138.45,387.0194 C1124.92,434.1494 1110.9956,482.6623 1099.3256,523.3123" fill="none" id="PacketInfo-to-FlowKey" style="stroke:#000000;stroke-width:1;"/><polygon fill="#000000" points="1097.67,529.0794,1103.9982,521.5326,1099.0497,524.2735,1096.3087,519.325,1097.67,529.0794" style="stroke:#000000;stroke-width:1;"/><text fill="#000000" font-family="Verdana" font-size="13" lengthAdjust="spacing" textLength="34.3599" x="1131" y="429.6763">Key()</text></g><!--reverse link FlowWithKey to FlowKey--><g class="link" data-entity-1="FlowWithKey" data-entity-2="FlowKey" data-source-line="77" data-uid="lnk18" id="link_FlowWithKey_FlowKey"><path codeLine="77" d="M793.28,332.2226 C811.41,366.5826 837.26,405.5994 879,433.6094 C925.37,464.7194 955.81,430.8194 1001,463.6094 C1023.7,480.0794 1041.3,505.2594 1054.08,528.8594" fill="none" id="FlowWithKey-backto-FlowKey" style="stroke:#000000;stroke-width:1;"/><polygon fill="#000000" points="787.68,321.6094,786.9423,328.7826,793.28,332.2226,794.0177,325.0493,787.68,321.6094" style="stroke:#000000;stroke-width:1;"/><text fill="#000000" font-family="Verdana" font-size="13" lengthAdjust="spacing" textLength="23.2197" x="880" y="429.6763">key</text></g><!--reverse link FlowWithKey to FlowFeatures--><g class="link" data-entity-1="FlowWithKey" data-entity-2="FlowFeatures" data-source-line="78" data-uid="lnk19" id="link_FlowWithKey_FlowFeatures"><path codeLine="78" d="M728.6855,330.6653 C697.2655,366.0753 656.33,412.1994 610.95,463.3294" fill="none" id="FlowWithKey-backto-FlowFeatures" style="stroke:#000000;stroke-width:1;"/><polygon fill="#000000" points="736.65,321.6894,729.6758,323.5225,728.6855,330.6653,735.6597,328.8322,736.65,321.6894" style="stroke:#000000;stroke-width:1;"/><text fill="#000000" font-family="Verdana" font-size="13" lengthAdjust="spacing" textLength="53.9932" x="652" y="429.6763">features</text></g><!--reverse link FlowFeatures to Stats--><g class="link" data-entity-1="FlowFeatures" data-entity-2="Stats" data-source-line="79" data-uid="lnk20" id="link_FlowFeatures_Stats"><path codeLine="79" d="M498,731.8494 C498,758.8394 498,773.9194 498,796.3394" fill="none" id="FlowFeatures-backto-Stats" style="stroke:#000000;stroke-width:1;"/><polygon fill="#000000" points="498,719.8494,494,725.8494,498,731.8494,502,725.8494,498,719.8494" style="stroke:#000000;stroke-width:1;"/><text fill="#000000" font-family="Verdana" font-size="13" lengthAdjust="spacing" textLength="53.0854" x="499" y="762.6763">multiple</text></g><!--link PacketInfo to Direction--><g class="link" data-entity-1="PacketInfo" data-entity-2="Direction" data-source-line="80" data-uid="lnk21" id="link_PacketInfo_Direction"><path codeLine="80" d="M1186.13,387.0194 C1196.21,444.2394 1207.1093,506.0803 1214.3493,547.1903" fill="none" id="PacketInfo-to-Direction" style="stroke:#000000;stroke-width:1;"/><polygon fill="#000000" points="1215.39,553.0994,1217.7684,543.542,1214.5228,548.1752,1209.8896,544.9296,1215.39,553.0994" style="stroke:#000000;stroke-width:1;"/><text fill="#000000" font-family="Verdana" font-size="13" lengthAdjust="spacing" textLength="22.9785" x="1195" y="429.6763">has</text></g><!--SRC=[rLLBRzim3BxxLsYtRN0231YA8OS1TTAiGTV1YDCMEwescmgHfK2IwtR3_lkeXsqvpThjk4jCVlf8yINcZRc76iYUKoOImmm7ifLtNBOr651aGafEjIOLerj5woG1qTHamHIKXab1VYQ4BALggQfGocYvS-Al9F5sI_Hq0K-ELwXobPCPqKOniKLWeSqOG4OkbK6eOS9yEF6SGoXNqiXIye1z6cvRqpR74C2u-pQi1crelKUYGNbg0SJFWLQWle907EsjH_h49QqAzWDwR3FFRvYeP1jVxL98_nXu-bVXOiLMtr9IVCUVTR59ILwSf-HqVf6Ig_MNbCnlrYavcv-XmQsKV4ZFvxOIT_B5_8Rkp0RvFyoRaEaKVt1ythv3B8pIUBQMG4sZGFj1H63HA6hplTAfqxCd0pe7LK3f0L_40DbyfQ5ysLO1JpsG7GB8SAw6SwVQMpigLZObsKZhHOo_CDHO_YKJ4UEIFXxZNmADrS9KaNPD5TRjOUi1spsdOY05R6iG0vIDe52YrIdM7idkcuMlrrrk7UYKa61nlkHqwzFhPCInRptUouZte-PEUkrVHi1Fuz2OheVPCsGXMt6rNzksUmkRU6Xxrl1T6h31B4QjZBQsEDaHq-oeQNPeMZItTcd6SpH0ON02a3tdHDEq4ipW-tCgcgOZ8BF0QMaMrD1yPzmvZXEssBONLNI0n-m1x2f0suexgP- -qTkvOUQ-sytsEpmnh6BthcQZPpOuSFwSAGQ0B4o3cfEFLgUFOnr7UGJWC4SwUfnByG2uFARJpz4Adn65SwD7fz46d95MCLipt3CbQ1rg6fBIp-dUsmlixhyAzvM6LvbTzQnZh8rurI0gwHtZ7Fb3T9D9VBtRU4byoVl993hVOOkEdSOtT0qRuPRe6pSZTSCDstCu32F-zxYd-ZS0]--></g></svg>