<svg xmlns="http://www.w3.org/2000/svg" xmlns:xlink="http://www.w3.org/1999/xlink" contentStyleType="text/css" data-diagram-type="DESCRIPTION" height="501px" preserveAspectRatio="none" style="width:2504px;height:501px;background:#FFFFFF;" version="1.1" viewBox="0 0 2504 501" width="2504px" zoomAndPan="magnify"><title>goflowmeter - Component view</title><defs/><g><g class="title" data-source-line="2"><text fill="#000000" font-family="Verdana" font-size="22" font-weight="bold" lengthAdjust="spacing" textLength="388.5879" x="1053.4961" y="35.4209">goflowmeter - Component view</text></g><!--cluster flowmeter (public API)--><g class="cluster" data-entity="flowmeter .public API." data-source-line="4" data-uid="ent0002" id="cluster_flowmeter .public API."><path d="M13.5,57.6094 L191.8721,57.6094 A3.75,3.75 0 0 1 194.3721,60.1094 L201.3721,79.9063 L481.5,79.9063 A2.5,2.5 0 0 1 484,82.4063 L484,313.1094 A2.5,2.5 0 0 1 481.5,315.6094 L13.5,315.6094 A2.5,2.5 0 0 1 11,313.1094 L11,60.1094 A2.5,2.5 0 0 1 13.5,57.6094" fill="#FFFFFF" style="stroke:#000000;stroke-width:1;"/><line style="stroke:#000000;stroke-width:1;" x1="11" x2="201.3721" y1="79.9063" y2="79.9063"/><text fill="#000000" font-family="Verdana" font-size="14" font-weight="bold" lengthAdjust="spacing" textLength="177.3721" x="15" y="72.6045">flowmeter (public API)</text></g><!--cluster compute pipeline--><g class="cluster" data-entity="compute pipeline" data-source-line="10" data-uid="ent0006" id="cluster_compute pipeline"><path d="M510.5,218.6094 L648.4512,218.6094 A3.75,3.75 0 0 1 650.9512,221.1094 L657.9512,240.9063 L2320.5,240.9063 A2.5,2.5 0 0 1 2323,243.4063 L2323,475.6094 A2.5,2.5 0 0 1 2320.5,478.1094 L510.5,478.1094 A2.5,2.5 0 0 1 508,475.6094 L508,221.1094 A2.5,2.5 0 0 1 510.5,218.6094" fill="#FFFFFF" style="stroke:#000000;stroke-width:1;"/><line style="stroke:#000000;stroke-width:1;" x1="508" x2="657.9512" y1="240.9063" y2="240.9063"/><text fill="#000000" font-family="Verdana" font-size="14" font-weight="bold" lengthAdjust="spacing" textLength="136.9512" x="512" y="233.6045">compute pipeline</text></g><!--cluster stats (shared)--><g class="cluster" data-entity="stats .shared." data-source-line="24" data-uid="ent0018" id="cluster_stats .shared."><path d="M296.5,364.6094 L408.8369,364.6094 A3.75,3.75 0 0 1 411.3369,367.1094 L418.3369,386.9063 L481.5,386.9063 A2.5,2.5 0 0 1 484,389.4063 L484,492.1094 A2.5,2.5 0 0 1 481.5,494.6094 L296.5,494.6094 A2.5,2.5 0 0 1 294,492.1094 L294,367.1094 A2.5,2.5 0 0 1 296.5,364.6094" fill="#FFFFFF" style="stroke:#000000;stroke-width:1;"/><line style="stroke:#000000;stroke-width:1;" x1="294" x2="418.3369" y1="386.9063" y2="386.9063"/><text fill="#000000" font-family="Verdana" font-size="14" font-weight="bold" lengthAdjust="spacing" textLength="111.3369" x="298" y="379.6045">stats (shared)</text></g><!--entity API--><g class="entity" data-entity="API" data-source-line="5" data-uid="ent0003" id="entity_API"><rect fill="#FFFFFF" height="62.5938" rx="2.5" ry="2.5" style="stroke:#000000;stroke-width:1;" width="218.6777" x="248.5" y="92.6094"/><rect fill="#FFFFFF" height="10" style="stroke:#000000;stroke-width:1;" width="15" x="447.1777" y="97.6094"/><rect fill="#FFFFFF" height="2" style="stroke:#000000;stroke-width:1;" width="4" x="445.1777" y="99.6094"/><rect fill="#FFFFFF" height="2" style="stroke:#000000;stroke-width:1;" width="4" x="445.1777" y="103.6094"/><text fill="#000000" font-family="Verdana" font-size="14" lengthAdjust="spacing" textLength="173.3525" x="263.5" y="125.6045">ProcessPacketsWithKeys</text><text fill="#000000" font-family="Verdana" font-size="14" lengthAdjust="spacing" textLength="178.6777" x="263.5" y="141.9014">(packets to FlowWithKey)</text></g><!--entity Convert--><g class="entity" data-entity="Convert" data-source-line="6" data-uid="ent0004" id="entity_Convert"><rect fill="#FFFFFF" height="62.5938" rx="2.5" ry="2.5" style="stroke:#000000;stroke-width:1;" width="185.8994" x="27" y="92.6094"/><rect fill="#FFFFFF" height="10" style="stroke:#000000;stroke-width:1;" width="15" x="192.8994" y="97.6094"/><rect fill="#FFFFFF" height="2" style="stroke:#000000;stroke-width:1;" width="4" x="190.8994" y="99.6094"/><rect fill="#FFFFFF" height="2" style="stroke:#000000;stroke-width:1;" width="4" x="190.8994" y="103.6094"/><text fill="#000000" font-family="Verdana" font-size="14" lengthAdjust="spacing" textLength="145.8994" x="42" y="125.6045">ConvertToPacketInfo</text><text fill="#000000" font-family="Verdana" font-size="14" lengthAdjust="spacing" textLength="133.0889" x="42" y="141.9014">(raw to PacketInfo)</text></g><!--entity Canonical--><g class="entity" data-entity="Canonical" data-source-line="7" data-uid="ent0005" id="entity_Canonical"><rect fill="#FFFFFF" height="46.2969" rx="2.5" ry="2.5" style="stroke:#000000;stroke-width:1;" width="166.7588" x="139.5" y="253.6094"/><rect fill="#FFFFFF" height="10" style="stroke:#000000;stroke-width:1;" width="15" x="286.2588" y="258.6094"/><rect fill="#FFFFFF" height="2" style="stroke:#000000;stroke-width:1;" width="4" x="284.2588" y="260.6094"/><rect fill="#FFFFFF" height="2" style="stroke:#000000;stroke-width:1;" width="4" x="284.2588" y="264.6094"/><text fill="#000000" font-family="Verdana" font-size="14" lengthAdjust="spacing" textLength="126.7588" x="154.5" y="286.6045">CanonicalFlowKey</text></g><!--entity Basic--><g class="entity" data-entity="Basic" data-source-line="11" data-uid="ent0007" id="entity_Basic"><rect fill="#FFFFFF" height="46.2969" rx="2.5" ry="2.5" style="stroke:#000000;stroke-width:1;" width="138.8271" x="524.5" y="253.6094"/><rect fill="#FFFFFF" height="10" style="stroke:#000000;stroke-width:1;" width="15" x="643.3271" y="258.6094"/><rect fill="#FFFFFF" height="2" style="stroke:#000000;stroke-width:1;" width="4" x="641.3271" y="260.6094"/><rect fill="#FFFFFF" height="2" style="stroke:#000000;stroke-width:1;" width="4" x="641.3271" y="264.6094"/><text fill="#000000" font-family="Verdana" font-size="14" lengthAdjust="spacing" textLength="98.8271" x="539.5" y="286.6045">computeBasic</text></g><!--entity Counts--><g class="entity" data-entity="Counts" data-source-line="12" data-uid="ent0008" id="entity_Counts"><rect fill="#FFFFFF" height="46.2969" rx="2.5" ry="2.5" style="stroke:#000000;stroke-width:1;" width="150.6328" x="1585.5" y="416.1094"/><rect fill="#FFFFFF" height="10" style="stroke:#000000;stroke-width:1;" width="15" x="1716.1328" y="421.1094"/><rect fill="#FFFFFF" height="2" style="stroke:#000000;stroke-width:1;" width="4" x="1714.1328" y="423.1094"/><rect fill="#FFFFFF" height="2" style="stroke:#000000;stroke-width:1;" width="4" x="1714.1328" y="427.1094"/><text fill="#000000" font-family="Verdana" font-size="14" lengthAdjust="spacing" textLength="110.6328" x="1600.5" y="449.1045">computeCounts</text></g><!--entity PacketLen--><g class="entity" data-entity="PacketLen" data-source-line="13" data-uid="ent0009" id="entity_PacketLen"><rect fill="#FFFFFF" height="46.2969" rx="2.5" ry="2.5" style="stroke:#000000;stroke-width:1;" width="173.9775" x="699" y="253.6094"/><rect fill="#FFFFFF" height="10" style="stroke:#000000;stroke-width:1;" width="15" x="852.9775" y="258.6094"/><rect fill="#FFFFFF" height="2" style="stroke:#000000;stroke-width:1;" width="4" x="850.9775" y="260.6094"/><rect fill="#FFFFFF" height="2" style="stroke:#000000;stroke-width:1;" width="4" x="850.9775" y="264.6094"/><text fill="#000000" font-family="Verdana" font-size="14" lengthAdjust="spacing" textLength="133.9775" x="714" y="286.6045">computePacketLen</text></g><!--entity IAT--><g class="entity" data-entity="IAT" data-source-line="14" data-uid="ent0010" id="entity_IAT"><rect fill="#FFFFFF" height="46.2969" rx="2.5" ry="2.5" style="stroke:#000000;stroke-width:1;" width="124.0205" x="908" y="253.6094"/><rect fill="#FFFFFF" height="10" style="stroke:#000000;stroke-width:1;" width="15" x="1012.0205" y="258.6094"/><rect fill="#FFFFFF" height="2" style="stroke:#000000;stroke-width:1;" width="4" x="1010.0205" y="260.6094"/><rect fill="#FFFFFF" height="2" style="stroke:#000000;stroke-width:1;" width="4" x="1010.0205" y="264.6094"/><text fill="#000000" font-family="Verdana" font-size="14" lengthAdjust="spacing" textLength="84.0205" x="923" y="286.6045">computeIAT</text></g><!--entity Flags--><g class="entity" data-entity="Flags" data-source-line="15" data-uid="ent0011" id="entity_Flags"><rect fill="#FFFFFF" height="46.2969" rx="2.5" ry="2.5" style="stroke:#000000;stroke-width:1;" width="138.4648" x="1067" y="253.6094"/><rect fill="#FFFFFF" height="10" style="stroke:#000000;stroke-width:1;" width="15" x="1185.4648" y="258.6094"/><rect fill="#FFFFFF" height="2" style="stroke:#000000;stroke-width:1;" width="4" x="1183.4648" y="260.6094"/><rect fill="#FFFFFF" height="2" style="stroke:#000000;stroke-width:1;" width="4" x="1183.4648" y="264.6094"/><text fill="#000000" font-family="Verdana" font-size="14" lengthAdjust="spacing" textLength="98.4648" x="1082" y="286.6045">computeFlags</text></g><!--entity Rates--><g class="entity" data-entity="Rates" data-source-line="16" data-uid="ent0012" id="entity_Rates"><rect fill="#FFFFFF" height="46.2969" rx="2.5" ry="2.5" style="stroke:#000000;stroke-width:1;" width="141.4658" x="1240.5" y="253.6094"/><rect fill="#FFFFFF" height="10" style="stroke:#000000;stroke-width:1;" width="15" x="1361.9658" y="258.6094"/><rect fill="#FFFFFF" height="2" style="stroke:#000000;stroke-width:1;" width="4" x="1359.9658" y="260.6094"/><rect fill="#FFFFFF" height="2" style="stroke:#000000;stroke-width:1;" width="4" x="1359.9658" y="264.6094"/><text fill="#000000" font-family="Verdana" font-size="14" lengthAdjust="spacing" textLength="101.4658" x="1255.5" y="286.6045">computeRates</text></g><!--entity Ratio--><g class="entity" data-entity="Ratio" data-source-line="17" data-uid="ent0013" id="entity_Ratio"><rect fill="#FFFFFF" height="46.2969" rx="2.5" ry="2.5" style="stroke:#000000;stroke-width:1;" width="138.0137" x="1417" y="253.6094"/><rect fill="#FFFFFF" height="10" style="stroke:#000000;stroke-width:1;" width="15" x="1535.0137" y="258.6094"/><rect fill="#FFFFFF" height="2" style="stroke:#000000;stroke-width:1;" width="4" x="1533.0137" y="260.6094"/><rect fill="#FFFFFF" height="2" style="stroke:#000000;stroke-width:1;" width="4" x="1533.0137" y="264.6094"/><text fill="#000000" font-family="Verdana" font-size="14" lengthAdjust="spacing" textLength="98.0137" x="1432" y="286.6045">computeRatio</text></g><!--entity Bulk--><g class="entity" data-entity="Bulk" data-source-line="18" data-uid="ent0014" id="entity_Bulk"><rect fill="#FFFFFF" height="46.2969" rx="2.5" ry="2.5" style="stroke:#000000;stroke-width:1;" width="132.2373" x="1590" y="253.6094"/><rect fill="#FFFFFF" height="10" style="stroke:#000000;stroke-width:1;" width="15" x="1702.2373" y="258.6094"/><rect fill="#FFFFFF" height="2" style="stroke:#000000;stroke-width:1;" width="4" x="1700.2373" y="260.6094"/><rect fill="#FFFFFF" height="2" style="stroke:#000000;stroke-width:1;" width="4" x="1700.2373" y="264.6094"/><text fill="#000000" font-family="Verdana" font-size="14" lengthAdjust="spacing" textLength="92.2373" x="1605" y="286.6045">computeBulk</text></g><!--entity Subflow--><g class="entity" data-entity="Subflow" data-source-line="19" data-uid="ent0015" id="entity_Subflow"><rect fill="#FFFFFF" height="46.2969" rx="2.5" ry="2.5" style="stroke:#000000;stroke-width:1;" width="157.2432" x="1757.5" y="253.6094"/><rect fill="#FFFFFF" height="10" style="stroke:#000000;stroke-width:1;" width="15" x="1894.7432" y="258.6094"/><rect fill="#FFFFFF" height="2" style="stroke:#000000;stroke-width:1;" width="4" x="1892.7432" y="260.6094"/><rect fill="#FFFFFF" height="2" style="stroke:#000000;stroke-width:1;" width="4" x="1892.7432" y="264.6094"/><text fill="#000000" font-family="Verdana" font-size="14" lengthAdjust="spacing" textLength="117.2432" x="1772.5" y="286.6045">computeSubflow</text></g><!--entity ActiveIdle--><g class="entity" data-entity="ActiveIdle" data-source-line="20" data-uid="ent0016" id="entity_ActiveIdle"><rect fill="#FFFFFF" height="46.2969" rx="2.5" ry="2.5" style="stroke:#000000;stroke-width:1;" width="170.833" x="1949.5" y="253.6094"/><rect fill="#FFFFFF" height="10" style="stroke:#000000;stroke-width:1;" width="15" x="2100.333" y="258.6094"/><rect fill="#FFFFFF" height="2" style="stroke:#000000;stroke-width:1;" width="4" x="2098.333" y="260.6094"/><rect fill="#FFFFFF" height="2" style="stroke:#000000;stroke-width:1;" width="4" x="2098.333" y="264.6094"/><text fill="#000000" font-family="Verdana" font-size="14" lengthAdjust="spacing" textLength="130.833" x="1964.5" y="286.6045">computeActiveIdle</text></g><!--entity InitWin--><g class="entity" data-entity="InitWin" data-source-line="21" data-uid="ent0017" id="entity_InitWin"><rect fill="#FFFFFF" height="46.2969" rx="2.5" ry="2.5" style="stroke:#000000;stroke-width:1;" width="150.749" x="2155.5" y="253.6094"/><rect fill="#FFFFFF" height="10" style="stroke:#000000;stroke-width:1;" width="15" x="2286.249" y="258.6094"/><rect fill="#FFFFFF" height="2" style="stroke:#000000;stroke-width:1;" width="4" x="2284.249" y="260.6094"/><rect fill="#FFFFFF" height="2" style="stroke:#000000;stroke-width:1;" width="4" x="2284.249" y="264.6094"/><text fill="#000000" font-family="Verdana" font-size="14" lengthAdjust="spacing" textLength="110.749" x="2170.5" y="286.6045">computeInitWin</text></g><!--entity Stats--><g class="entity" data-entity="Stats" data-source-line="25" data-uid="ent0019" id="entity_Stats"><rect fill="#FFFFFF" height="78.8906" rx="2.5" ry="2.5" style="stroke:#000000;stroke-width:1;" width="158.5762" x="309.5" y="399.6094"/><rect fill="#FFFFFF" height="10" style="stroke:#000000;stroke-width:1;" width="15" x="448.0762" y="404.6094"/><rect fill="#FFFFFF" height="2" style="stroke:#000000;stroke-width:1;" width="4" x="446.0762" y="406.6094"/><rect fill="#FFFFFF" height="2" style="stroke:#000000;stroke-width:1;" width="4" x="446.0762" y="410.6094"/><text fill="#000000" font-family="Verdana" font-size="14" lengthAdjust="spacing" textLength="118.5762" x="324.5" y="432.6045">StatsFromValues</text><text fill="#000000" font-family="Verdana" font-size="14" lengthAdjust="spacing" textLength="115.1924" x="324.5" y="448.9014">MinMaxMeanStd</text><text fill="#000000" font-family="Verdana" font-size="14" lengthAdjust="spacing" textLength="61.5645" x="324.5" y="465.1982">Variance</text></g><!--link API to Canonical--><g class="link" data-entity-1="API" data-entity-2="Canonical" data-source-line="28" data-uid="lnk20" id="link_API_Canonical"><path d="M330.35,155.9294 C304.28,184.9994 269.8558,223.3725 246.7458,249.1425" fill="none" id="API-to-Canonical" style="stroke:#000000;stroke-width:1;"/><polygon fill="#000000" points="242.74,253.6094,251.7267,249.5796,246.0782,249.8869,245.7708,244.2385,242.74,253.6094" style="stroke:#000000;stroke-width:1;"/><text fill="#000000" font-family="Verdana" font-size="13" lengthAdjust="spacing" textLength="116.3779" x="304" y="198.6763">group by flow key</text></g><!--link API to Basic--><g class="link" data-entity-1="API" data-entity-2="Basic" data-source-line="29" data-uid="lnk21" id="link_API_Basic"><path d="M406.04,155.7494 C451.6,184.7994 513.8611,224.5034 554.3511,250.3234" fill="none" id="API-to-Basic" style="stroke:#000000;stroke-width:1;"/><polygon fill="#000000" points="559.41,253.5494,553.9723,245.3377,555.1942,250.861,549.6709,252.083,559.41,253.5494" style="stroke:#000000;stroke-width:1;"/></g><!--link API to Counts--><g class="link" data-entity-1="API" data-entity-2="Counts" data-source-line="30" data-uid="lnk22" id="link_API_Counts"><path d="M467.76,125.6794 C872.36,128.3094 2260.37,142.3194 2324,210.6094 C2497.58,396.9194 1950.4374,430.473 1742.6174,436.583" fill="none" id="API-to-Counts" style="stroke:#000000;stroke-width:1;"/><polygon fill="#000000" points="1736.62,436.7594,1745.7337,440.4932,1741.6178,436.6124,1745.4986,432.4966,1736.62,436.7594" style="stroke:#000000;stroke-width:1;"/></g><!--link API to PacketLen--><g class="link" data-entity-1="API" data-entity-2="PacketLen" data-source-line="31" data-uid="lnk23" id="link_API_PacketLen"><path d="M467.61,145.6794 C531.42,159.7094 612.54,181.1294 681,210.6094 C707.58,222.0594 730.3835,236.1134 750.6735,250.0434" fill="none" id="API-to-PacketLen" style="stroke:#000000;stroke-width:1;"/><polygon fill="#000000" points="755.62,253.4394,750.4643,245.0478,751.498,250.6094,745.9363,251.6431,755.62,253.4394" style="stroke:#000000;stroke-width:1;"/></g><!--link API to IAT--><g class="link" data-entity-1="API" data-entity-2="IAT" data-source-line="32" data-uid="lnk24" id="link_API_IAT"><path d="M467.68,126.0894 C578.92,130.8294 753.78,148.7094 891,210.6094 C913.34,220.6894 930.2685,234.5859 945.0785,249.1259" fill="none" id="API-to-IAT" style="stroke:#000000;stroke-width:1;"/><polygon fill="#000000" points="949.36,253.3294,945.7401,244.1699,945.7921,249.8265,940.1355,249.8786,949.36,253.3294" style="stroke:#000000;stroke-width:1;"/></g><!--link API to Flags--><g class="link" data-entity-1="API" data-entity-2="Flags" data-source-line="33" data-uid="lnk25" id="link_API_Flags"><path d="M467.72,131.4694 C635.54,142.4094 947.35,167.8194 1050,210.6094 C1074.01,220.6194 1092.8386,234.9074 1109.1186,249.5474" fill="none" id="API-to-Flags" style="stroke:#000000;stroke-width:1;"/><polygon fill="#000000" points="1113.58,253.5594,1109.5625,244.5672,1109.8622,250.2161,1104.2133,250.5157,1113.58,253.5594" style="stroke:#000000;stroke-width:1;"/></g><!--link API to Rates--><g class="link" data-entity-1="API" data-entity-2="Rates" data-source-line="34" data-uid="lnk26" id="link_API_Rates"><path d="M467.53,128.3994 C668.61,135.6594 1088.34,156.9294 1223,210.6094 C1247.52,220.3894 1266.8611,234.7395 1283.5311,249.4495" fill="none" id="API-to-Rates" style="stroke:#000000;stroke-width:1;"/><polygon fill="#000000" points="1288.03,253.4194,1283.9283,244.4653,1284.2809,250.1111,1278.6351,250.4638,1288.03,253.4194" style="stroke:#000000;stroke-width:1;"/></g><!--link API to Ratio--><g class="link" data-entity-1="API" data-entity-2="Ratio" data-source-line="35" data-uid="lnk27" id="link_API_Ratio"><path d="M467.69,131.3294 C627.61,140.7794 934.02,160.3694 1194,185.6094 C1285.36,194.4794 1313.81,176.4394 1399,210.6094 C1423.32,220.3694 1442.4062,234.6912 1458.8662,249.4012" fill="none" id="API-to-Ratio" style="stroke:#000000;stroke-width:1;"/><polygon fill="#000000" points="1463.34,253.3994,1459.2947,244.4196,1459.6118,250.0676,1453.9639,250.3847,1463.34,253.3994" style="stroke:#000000;stroke-width:1;"/></g><!--link API to Bulk--><g class="link" data-entity-1="API" data-entity-2="Bulk" data-source-line="36" data-uid="lnk28" id="link_API_Bulk"><path d="M467.66,130.9594 C644.89,140.6694 1005.2,161.4394 1310,185.6094 C1427.05,194.8894 1463.94,167.0994 1573,210.6094 C1596.8,220.0994 1615.0469,234.5096 1630.6369,249.3696" fill="none" id="API-to-Bulk" style="stroke:#000000;stroke-width:1;"/><polygon fill="#000000" points="1634.98,253.5094,1631.2252,244.4044,1631.3607,250.0596,1625.7055,250.1952,1634.98,253.5094" style="stroke:#000000;stroke-width:1;"/></g><!--link API to Subflow--><g class="link" data-entity-1="API" data-entity-2="Subflow" data-source-line="37" data-uid="lnk29" id="link_API_Subflow"><path d="M467.85,129.9894 C665.46,139.0294 1093.99,159.8294 1455,185.6094 C1581.83,194.6694 1620.18,168.0494 1740,210.6094 C1766.55,220.0394 1788.1127,234.8166 1806.4327,249.6966" fill="none" id="API-to-Subflow" style="stroke:#000000;stroke-width:1;"/><polygon fill="#000000" points="1811.09,253.4794,1806.6259,244.7003,1807.2089,250.327,1801.5822,250.9101,1811.09,253.4794" style="stroke:#000000;stroke-width:1;"/></g><!--link API to ActiveIdle--><g class="link" data-entity-1="API" data-entity-2="ActiveIdle" data-source-line="38" data-uid="lnk30" id="link_API_ActiveIdle"><path d="M467.67,129.3494 C685.36,137.9894 1187.45,159.1094 1609,185.6094 C1752.7,194.6394 1795.33,165.2994 1932,210.6094 C1960.1,219.9194 1983.4805,234.8754 2003.2405,249.7854" fill="none" id="API-to-ActiveIdle" style="stroke:#000000;stroke-width:1;"/><polygon fill="#000000" points="2008.03,253.3994,2003.255,244.7855,2004.0387,250.3878,1998.4364,251.1715,2008.03,253.3994" style="stroke:#000000;stroke-width:1;"/></g><!--link API to InitWin--><g class="link" data-entity-1="API" data-entity-2="InitWin" data-source-line="39" data-uid="lnk31" id="link_API_InitWin"><path d="M467.77,128.7594 C706.53,136.9294 1290.9,158.1294 1780,185.6094 C1939.25,194.5594 1987.62,157.4394 2138,210.6094 C2164,219.7994 2184.8006,234.5027 2202.4606,249.4527" fill="none" id="API-to-InitWin" style="stroke:#000000;stroke-width:1;"/><polygon fill="#000000" points="2207.04,253.3294,2202.7553,244.4614,2203.2238,250.0988,2197.5864,250.5673,2207.04,253.3294" style="stroke:#000000;stroke-width:1;"/></g><!--link Convert to Canonical--><g class="link" data-entity-1="Convert" data-entity-2="Canonical" data-source-line="40" data-uid="lnk32" id="link_Convert_Canonical"><path d="M137.55,155.7694 C146.08,170.2194 156.7,187.5394 167,202.6094 C178.99,220.1494 189.9072,234.4719 201.2072,248.6919" fill="none" id="Convert-to-Canonical" style="stroke:#000000;stroke-width:1;"/><polygon fill="#000000" points="204.94,253.3894,202.4724,243.8547,201.8293,249.4748,196.2091,248.8318,204.94,253.3894" style="stroke:#000000;stroke-width:1;"/><text fill="#000000" font-family="Verdana" font-size="13" lengthAdjust="spacing" textLength="89.2354" x="168" y="198.6763">canonical key</text></g><!--link PacketLen to Stats--><g class="link" data-entity-1="PacketLen" data-entity-2="Stats" data-source-line="41" data-uid="lnk33" id="link_PacketLen_Stats"><path d="M741.62,299.6894 C723.22,308.1494 701.43,317.2694 681,323.6094 C606.24,346.7894 580.26,326.5294 508,356.6094 C482.34,367.2894 461.3806,380.457 440.4106,395.997" fill="none" id="PacketLen-to-Stats" style="stroke:#000000;stroke-width:1;"/><polygon fill="#000000" points="435.59,399.5694,445.2025,397.4246,439.6072,396.5924,440.4393,390.9971,435.59,399.5694" style="stroke:#000000;stroke-width:1;"/></g><!--link IAT to Stats--><g class="link" data-entity-1="IAT" data-entity-2="Stats" data-source-line="42" data-uid="lnk34" id="link_IAT_Stats"><path d="M939.21,299.7694 C925.17,308.7194 907.93,318.1994 891,323.6094 C774.51,360.8094 738.87,338.5794 617,348.6094 C592.79,350.5994 530.92,348.5794 508,356.6094 C481.06,366.0494 459.2774,379.5963 438.1174,395.7663" fill="none" id="IAT-to-Stats" style="stroke:#000000;stroke-width:1;"/><polygon fill="#000000" points="433.35,399.4094,442.9298,397.1229,437.3228,396.3734,438.0723,390.7665,433.35,399.4094" style="stroke:#000000;stroke-width:1;"/></g><!--link ActiveIdle to Stats--><g class="link" data-entity-1="ActiveIdle" data-entity-2="Stats" data-source-line="43" data-uid="lnk35" id="link_ActiveIdle_Stats"><path d="M1995.7,299.6794 C1977.01,308.9794 1953.99,318.7594 1932,323.6094 C1901.89,330.2594 1407.83,330.9394 1377,331.6094 C1373.98,331.6794 510.87,355.6794 508,356.6094 C480.5,365.5594 458.3313,379.3424 437.0813,395.8224" fill="none" id="ActiveIdle-to-Stats" style="stroke:#000000;stroke-width:1;"/><polygon fill="#000000" points="432.34,399.4994,441.9032,397.1447,436.2911,396.4352,437.0006,390.823,432.34,399.4994" style="stroke:#000000;stroke-width:1;"/></g><!--link Subflow to Counts--><g class="link" data-entity-1="Subflow" data-entity-2="Counts" data-source-line="44" data-uid="lnk36" id="link_Subflow_Counts"><path d="M1811.67,299.9294 C1778.23,330.5894 1722.8718,381.3638 1689.5518,411.9238" fill="none" id="Subflow-to-Counts" style="stroke:#000000;stroke-width:1;stroke-dasharray:7,7;"/><polygon fill="#000000" points="1685.13,415.9794,1694.4664,412.8439,1688.8149,412.5998,1689.059,406.9482,1685.13,415.9794" style="stroke:#000000;stroke-width:1;"/><text fill="#000000" font-family="Verdana" font-size="13" lengthAdjust="spacing" textLength="125.0298" x="1775" y="344.6763">uses TotalFwd/Bwd</text></g><!--link Rates to Counts--><g class="link" data-entity-1="Rates" data-entity-2="Counts" data-source-line="45" data-uid="lnk37" id="link_Rates_Counts"><path d="M1338.01,299.6194 C1357.66,314.8494 1385.37,334.7794 1412,348.6094 C1467.65,377.4994 1529.0194,399.2516 1579.5294,414.9216" fill="none" id="Rates-to-Counts" style="stroke:#000000;stroke-width:1;stroke-dasharray:7,7;"/><polygon fill="#000000" points="1585.26,416.6994,1577.8494,410.2123,1580.4845,415.2179,1575.4789,417.853,1585.26,416.6994" style="stroke:#000000;stroke-width:1;"/><text fill="#000000" font-family="Verdana" font-size="13" lengthAdjust="spacing" textLength="125.0298" x="1413" y="344.6763">uses TotalFwd/Bwd</text></g><!--link Ratio to Counts--><g class="link" data-entity-1="Ratio" data-entity-2="Counts" data-source-line="46" data-uid="lnk38" id="link_Ratio_Counts"><path d="M1510.33,299.9294 C1543.77,330.5894 1599.1282,381.3638 1632.4482,411.9238" fill="none" id="Ratio-to-Counts" style="stroke:#000000;stroke-width:1;stroke-dasharray:7,7;"/><polygon fill="#000000" points="1636.87,415.9794,1632.941,406.9482,1633.1851,412.5998,1627.5336,412.8439,1636.87,415.9794" style="stroke:#000000;stroke-width:1;"/><text fill="#000000" font-family="Verdana" font-size="13" lengthAdjust="spacing" textLength="125.0298" x="1564" y="344.6763">uses TotalFwd/Bwd</text></g><!--SRC=[ZLCzR-Cm3DtzAzXEwP3Utk60D420u2v0q0JjSEsWo4n2H94CYuulAFhVJv-sYWwzoIGVFnuVvHi-uXcXKO9qnSGAuM3solHdP6nX2dDpRen6pN0XxAkg4V8a3WYtOzAawNQA9CpMoxjRUAy0_gnR8z7QjKj6jY_4nrzujQzwqiG8i865Qv2GkpSGrjVxshdH5snvQsBrKk-DAsn5xul6MAn9oQ5EQAD92kKRkwOHpy7ge-0ktL8TkxMfGKKQ4-iKVXIMPAWELe7CJQVPfi7UBB38x3Vg00zUaR6SRGFclaLqeSGXjWnMWJm9neW4wpD29YDaIkwTEaNgpYZYcsxd3nQWP1VeJ39TS5ahZ8SOt9Az9dwXk5soFsbgMRYxJknHj5ZdTx3nmKLhpiz2TUWUm8hqIlnTeT0Rhb_risX9Q1d7XcJVqpq4c4v_ZiU31pYqfcjWTmLF7Kvu7RBYaOQQU9ViZdV84Qz-jgFYsOig5vvJTXZYvSnE5Z3xXLx3bAHGUfzVrf63xLSPMCRsGGV7i_364KKmyO3x-xotwznPjB0rxFw3llxnsDTLsEi_aiXya_GF]--></g></svg>