<svg xmlns="http://www.w3.org/2000/svg" xmlns:xlink="http://www.w3.org/1999/xlink" contentStyleType="text/css" data-diagram-type="ACTIVITY" height="1028px" preserveAspectRatio="none" style="width:355px;height:1028px;background:#FFFFFF;" version="1.1" viewBox="0 0 355 1028" width="355px" zoomAndPan="magnify"><title>goflowmeter - flowchart</title><defs/><g><g class="title" data-source-line="2"><text fill="#000000" font-family="Verdana" font-size="22" font-weight="bold" lengthAdjust="spacing" textLength="299.46" x="26.7173" y="35.4209">goflowmeter - flowchart</text></g><ellipse cx="177.9473" cy="61.6094" fill="#FFFFFF" rx="10" ry="10" style="stroke:#000000;stroke-width:1;"/><rect fill="#FFFFFF" height="33.9688" rx="12.5" ry="12.5" style="stroke:#000000;stroke-width:1;" width="238.4668" x="58.7139" y="91.6094"/><text fill="#000000" font-family="Verdana" font-size="12" lengthAdjust="spacing" textLength="218.4668" x="68.7139" y="112.748">Group packets by CanonicalFlowKey</text><rect fill="#FFFFFF" height="33.9688" rx="12.5" ry="12.5" style="stroke:#000000;stroke-width:1;" width="182.3457" x="86.7744" y="145.5781"/><text fill="#000000" font-family="Verdana" font-size="12" lengthAdjust="spacing" textLength="162.3457" x="96.7744" y="166.7168">Sort packets by timestamp</text><rect fill="#FFFFFF" height="47.9375" rx="12.5" ry="12.5" style="stroke:#000000;stroke-width:1;" width="224.1523" x="65.8711" y="199.5469"/><text fill="#000000" font-family="Verdana" font-size="12" lengthAdjust="spacing" textLength="84.709" x="75.8711" y="220.6855">computeBasic</text><text fill="#000000" font-family="Verdana" font-size="12" lengthAdjust="spacing" textLength="204.1523" x="75.8711" y="234.6543">(duration, flow bytes/s, packets/s)</text><rect fill="#FFFFFF" height="47.9375" rx="12.5" ry="12.5" style="stroke:#000000;stroke-width:1;" width="227.4043" x="64.2451" y="267.4844"/><text fill="#000000" font-family="Verdana" font-size="12" lengthAdjust="spacing" textLength="94.8281" x="74.2451" y="288.623">computeCounts</text><text fill="#000000" font-family="Verdana" font-size="12" lengthAdjust="spacing" textLength="207.4043" x="74.2451" y="302.5918">(TotalFwd/Bwd packets and bytes)</text><rect fill="#FFFFFF" height="47.9375" rx="12.5" ry="12.5" style="stroke:#000000;stroke-width:1;" width="256.1035" x="49.8955" y="335.4219"/><text fill="#000000" font-family="Verdana" font-size="12" lengthAdjust="spacing" textLength="114.8379" x="59.8955" y="356.5605">computePacketLen</text><text fill="#000000" font-family="Verdana" font-size="12" lengthAdjust="spacing" textLength="236.1035" x="59.8955" y="370.5293">(min/max/mean/std, avg segment size)</text><rect fill="#FFFFFF" height="47.9375" rx="12.5" ry="12.5" style="stroke:#000000;stroke-width:1;" width="206.1641" x="74.8652" y="403.3594"/><text fill="#000000" font-family="Verdana" font-size="12" lengthAdjust="spacing" textLength="72.0176" x="84.8652" y="424.498">computeIAT</text><text fill="#000000" font-family="Verdana" font-size="12" lengthAdjust="spacing" textLength="186.1641" x="84.8652" y="438.4668">(flow/fwd/bwd IAT stats, totals)</text><rect fill="#FFFFFF" height="47.9375" rx="12.5" ry="12.5" style="stroke:#000000;stroke-width:1;" width="229.8301" x="63.0322" y="471.2969"/><text fill="#000000" font-family="Verdana" font-size="12" lengthAdjust="spacing" textLength="84.3984" x="73.0322" y="492.4355">computeFlags</text><text fill="#000000" font-family="Verdana" font-size="12" lengthAdjust="spacing" textLength="209.8301" x="73.0322" y="506.4043">(PSH, URG, header len, FIN/SYN/...)</text><rect fill="#FFFFFF" height="47.9375" rx="12.5" ry="12.5" style="stroke:#000000;stroke-width:1;" width="343.8945" x="6" y="539.2344"/><text fill="#000000" font-family="Verdana" font-size="12" lengthAdjust="spacing" textLength="86.9707" x="16" y="560.373">computeRates</text><text fill="#000000" font-family="Verdana" font-size="12" lengthAdjust="spacing" textLength="323.8945" x="16" y="574.3418">(Fwd/Bwd packets/s, ActDataPktFwd, MinSegSizeFwd)</text><rect fill="#FFFFFF" height="47.9375" rx="12.5" ry="12.5" style="stroke:#000000;stroke-width:1;" width="226.0449" x="64.9248" y="607.1719"/><text fill="#000000" font-family="Verdana" font-size="12" lengthAdjust="spacing" textLength="84.0117" x="74.9248" y="628.3105">computeRatio</text><text fill="#000000" font-family="Verdana" font-size="12" lengthAdjust="spacing" textLength="206.0449" x="74.9248" y="642.2793">(DownUpRatio = bwd/fwd integer)</text><rect fill="#FFFFFF" height="47.9375" rx="12.5" ry="12.5" style="stroke:#000000;stroke-width:1;" width="220.6953" x="67.5996" y="675.1094"/><text fill="#000000" font-family="Verdana" font-size="12" lengthAdjust="spacing" textLength="79.0605" x="77.5996" y="696.248">computeBulk</text><text fill="#000000" font-family="Verdana" font-size="12" lengthAdjust="spacing" textLength="200.6953" x="77.5996" y="710.2168">(avg bytes/packets/rate per bulk)</text><rect fill="#FFFFFF" height="47.9375" rx="12.5" ry="12.5" style="stroke:#000000;stroke-width:1;" width="189.3594" x="83.2676" y="743.0469"/><text fill="#000000" font-family="Verdana" font-size="12" lengthAdjust="spacing" textLength="100.4941" x="93.2676" y="764.1855">computeSubflow</text><text fill="#000000" font-family="Verdana" font-size="12" lengthAdjust="spacing" textLength="169.3594" x="93.2676" y="778.1543">(avg packets/bytes per gap)</text><rect fill="#FFFFFF" height="47.9375" rx="12.5" ry="12.5" style="stroke:#000000;stroke-width:1;" width="181.7188" x="87.0879" y="810.9844"/><text fill="#000000" font-family="Verdana" font-size="12" lengthAdjust="spacing" textLength="112.1426" x="97.0879" y="832.123">computeActiveIdle</text><text fill="#000000" font-family="Verdana" font-size="12" lengthAdjust="spacing" textLength="161.7188" x="97.0879" y="846.0918">(active and idle time stats)</text><rect fill="#FFFFFF" height="47.9375" rx="12.5" ry="12.5" style="stroke:#000000;stroke-width:1;" width="189.1191" x="83.3877" y="878.9219"/><text fill="#000000" font-family="Verdana" font-size="12" lengthAdjust="spacing" textLength="94.9277" x="93.3877" y="900.0605">computeInitWin</text><text fill="#000000" font-family="Verdana" font-size="12" lengthAdjust="spacing" textLength="169.1191" x="93.3877" y="914.0293">(init window bytes fwd/bwd)</text><rect fill="#FFFFFF" height="33.9688" rx="12.5" ry="12.5" style="stroke:#000000;stroke-width:1;" width="298.7773" x="28.5586" y="946.8594"/><text fill="#000000" font-family="Verdana" font-size="12" lengthAdjust="spacing" textLength="278.7773" x="38.5586" y="967.998">Append FlowWithKey{Key, Features} to result</text><ellipse cx="177.9473" cy="1011.8281" fill="none" rx="11" ry="11" style="stroke:#000000;stroke-width:1;"/><ellipse cx="177.9473" cy="1011.8281" fill="#FFFFFF" rx="6" ry="6" style="stroke:#000000;stroke-width:1;"/><line style="stroke:#000000;stroke-width:1;" x1="177.9473" x2="177.9473" y1="71.6094" y2="91.6094"/><polygon fill="#000000" points="173.9473,81.6094,177.9473,91.6094,181.9473,81.6094,177.9473,85.6094" style="stroke:#000000;stroke-width:1;"/><line style="stroke:#000000;stroke-width:1;" x1="177.9473" x2="177.9473" y1="125.5781" y2="145.5781"/><polygon fill="#000000" points="173.9473,135.5781,177.9473,145.5781,181.9473,135.5781,177.9473,139.5781" style="stroke:#000000;stroke-width:1;"/><line style="stroke:#000000;stroke-width:1;" x1="177.9473" x2="177.9473" y1="179.5469" y2="199.5469"/><polygon fill="#000000" points="173.9473,189.5469,177.9473,199.5469,181.9473,189.5469,177.9473,193.5469" style="stroke:#000000;stroke-width:1;"/><line style="stroke:#000000;stroke-width:1;" x1="177.9473" x2="177.9473" y1="247.4844" y2="267.4844"/><polygon fill="#000000" points="173.9473,257.4844,177.9473,267.4844,181.9473,257.4844,177.9473,261.4844" style="stroke:#000000;stroke-width:1;"/><line style="stroke:#000000;stroke-width:1;" x1="177.9473" x2="177.9473" y1="315.4219" y2="335.4219"/><polygon fill="#000000" points="173.9473,325.4219,177.9473,335.4219,181.9473,325.4219,177.9473,329.4219" style="stroke:#000000;stroke-width:1;"/><line style="stroke:#000000;stroke-width:1;" x1="177.9473" x2="177.9473" y1="383.3594" y2="403.3594"/><polygon fill="#000000" points="173.9473,393.3594,177.9473,403.3594,181.9473,393.3594,177.9473,397.3594" style="stroke:#000000;stroke-width:1;"/><line style="stroke:#000000;stroke-width:1;" x1="177.9473" x2="177.9473" y1="451.2969" y2="471.2969"/><polygon fill="#000000" points="173.9473,461.2969,177.9473,471.2969,181.9473,461.2969,177.9473,465.2969" style="stroke:#000000;stroke-width:1;"/><line style="stroke:#000000;stroke-width:1;" x1="177.9473" x2="177.9473" y1="519.2344" y2="539.2344"/><polygon fill="#000000" points="173.9473,529.2344,177.9473,539.2344,181.9473,529.2344,177.9473,533.2344" style="stroke:#000000;stroke-width:1;"/><line style="stroke:#000000;stroke-width:1;" x1="177.9473" x2="177.9473" y1="587.1719" y2="607.1719"/><polygon fill="#000000" points="173.9473,597.1719,177.9473,607.1719,181.9473,597.1719,177.9473,601.1719" style="stroke:#000000;stroke-width:1;"/><line style="stroke:#000000;stroke-width:1;" x1="177.9473" x2="177.9473" y1="655.1094" y2="675.1094"/><polygon fill="#000000" points="173.9473,665.1094,177.9473,675.1094,181.9473,665.1094,177.9473,669.1094" style="stroke:#000000;stroke-width:1;"/><line style="stroke:#000000;stroke-width:1;" x1="177.9473" x2="177.9473" y1="723.0469" y2="743.0469"/><polygon fill="#000000" points="173.9473,733.0469,177.9473,743.0469,181.9473,733.0469,177.9473,737.0469" style="stroke:#000000;stroke-width:1;"/><line style="stroke:#000000;stroke-width:1;" x1="177.9473" x2="177.9473" y1="790.9844" y2="810.9844"/><polygon fill="#000000" points="173.9473,800.9844,177.9473,810.9844,181.9473,800.9844,177.9473,804.9844" style="stroke:#000000;stroke-width:1;"/><line style="stroke:#000000;stroke-width:1;" x1="177.9473" x2="177.9473" y1="858.9219" y2="878.9219"/><polygon fill="#000000" points="173.9473,868.9219,177.9473,878.9219,181.9473,868.9219,177.9473,872.9219" style="stroke:#000000;stroke-width:1;"/><line style="stroke:#000000;stroke-width:1;" x1="177.9473" x2="177.9473" y1="926.8594" y2="946.8594"/><polygon fill="#000000" points="173.9473,936.8594,177.9473,946.8594,181.9473,936.8594,177.9473,940.8594" style="stroke:#000000;stroke-width:1;"/><line style="stroke:#000000;stroke-width:1;" x1="177.9473" x2="177.9473" y1="980.8281" y2="1000.8281"/><polygon fill="#000000" points="173.9473,990.8281,177.9473,1000.8281,181.9473,990.8281,177.9473,994.8281" style="stroke:#000000;stroke-width:1;"/><!--SRC=[NL9DJzj04BtxLqnl8BdPUw8U4b0WQeiY34ALk4pimHbbl-GTurB4V- -iGv3XOArtzxrzRzxCDzcJ8uWMsHV2OWdQy6J3u4YeW- -G_-izTb8KIV8ol-f27o5YVI19i7k12_J1SurshTYVzB8evbNeP0eHTgHq5nT5CQ-3YxtG2XFNZ_wiwJiK3huSjHGjb4mgJtIJpXSVd8lGUqbAkWkYUaDZLaFp8OI-ET8dZEruzukyaXnxu_2lSOJU96bAmESM4hMEl43YVpGXRfPtIicMp9Fgx5H7Zq2h43KdMN-gixROPcFRwhg4-zkh4lQ4ZKPeIIjRRsvCzUV6p6Qp2USMrQjoljIHYr_MSec2suFePGc_sLVKLkfGjvzVuA0lN8R1tyTn1pz0lMRFm5wefMw2N_NseF1SzZ7dawIsGAT0xUuKCI5K_Iv7yCuveKVk26ynJj3gcfzfqrZAX74pDeNrP9o1OtpJb3tB0-VciFx1mBuvpG2yntwUPsOP8-b3US8UMFOwPQ_wQR24qdUKthGZe6jlPQ636k9_]--></g></svg>